<?xml version="1.0" standalone="no"?><!DOCTYPE svg PUBLIC "-//W3C//DTD SVG 1.1//EN" "http://www.w3.org/Graphics/SVG/1.1/DTD/svg11.dtd"><svg class="icon" width="120px" height="120.00px" viewBox="0 0 1024 1024" version="1.1" xmlns="http://www.w3.org/2000/svg"><path d="M734.849707 335.445333h-0.324267c-45.581653 0-82.537813 37.010773-82.537813 82.684587 0 45.643093 36.95616 82.64704 82.537813 82.64704h0.324267c45.574827 0 82.541227-37.00736 82.541226-82.64704 0-45.673813-36.9664-82.684587-82.541226-82.684587z m181.87264-275.145386H106.601813c-45.64992 0-82.664107 37.014187-82.664106 82.643626v738.092374c0 45.653333 37.014187 82.664107 82.664106 82.664106h810.120534c45.673813 0 82.688-37.010773 82.688-82.664106V142.964053c0-45.64992-37.014187-82.664107-82.688-82.664106z m33.061546 674.003626l-247.99232-216.978773-163.355306 133.655893 113.759573 81.271467-16.534187 16.52736-115.72224-82.66752-181.865813-165.33504-264.526507 220.450133V142.964053a33.05472 33.05472 0 0 1 33.058134-33.061546h810.120533a33.05472 33.05472 0 0 1 33.061547 33.061546v591.33952" /></svg>