<svg class="icon" width="120" height="120" viewBox="0 0 1024 1024" xmlns="http://www.w3.org/2000/svg"><path d="M734.85 335.445h-.325c-45.581 0-82.537 37.011-82.537 82.685 0 45.643 36.956 82.647 82.537 82.647h.325c45.575 0 82.54-37.007 82.54-82.647 0-45.674-36.965-82.685-82.54-82.685zM916.722 60.3h-810.12c-45.65 0-82.664 37.014-82.664 82.644v738.092c0 45.653 37.014 82.664 82.664 82.664h810.12c45.674 0 82.688-37.01 82.688-82.664V142.964c0-45.65-37.014-82.664-82.688-82.664zm33.062 674.004l-247.992-216.98-163.356 133.657 113.76 81.271-16.534 16.528-115.723-82.668-181.865-165.335-264.527 220.45V142.964a33.055 33.055 0 0 1 33.058-33.061h810.12a33.055 33.055 0 0 1 33.062 33.061v591.34"/></svg>