<svg class="icon" width="120" height="120" viewBox="0 0 1024 1024" xmlns="http://www.w3.org/2000/svg"><path d="M120.462 642.253c5.595-7.503 11.729-14.116 22.379-10.29 10.36 3.726 11.768 12.468 11.748 21.978q-.08 61.64 0 123.27c0 9.34-.78 18.482-11.13 22.358-10.13 3.796-16.983-1.998-22.977-9.16zM512.02 494.517h180.993c45.955 0 74.338 27.733 74.438 73.548q.33 148.086 0 296.171c-.1 44.027-27.194 72.64-71.42 72.929q-183.931.999-367.861 0c-44.907-.24-71.3-28.862-71.31-73.998V568.165c0-45.795 28.032-73.608 74.167-73.638q90.491-.01 180.993-.01zm.54 68.193c-39.572 0-79.153-.26-118.715.07-38.332.32-68.293 28.732-68.633 65.936q-.799 86.975 0 173.96c.28 34.676 26.814 64.657 61.32 65.286 82.23 1.499 164.53 1.839 246.76.39 40.61-.72 65.725-29.691 65.935-70.621q.51-81.69 0-163.38c-.23-43.538-28.892-71.51-72.679-71.58q-56.984-.15-113.989-.07zm-289.778 153.7V841.04a80.581 80.581 0 0 1-.899 14.036c-1.618 8.991-7.562 13.547-16.534 13.487s-14.485-5.285-16.214-13.987c-.679-3.406-.41-6.993-.41-10.55V587.707c0-3.526-.309-7.143.38-10.55 1.769-8.691 7.313-14.146 16.234-14.196 8.722 0 14.916 4.536 16.494 13.627a76.166 76.166 0 0 1 1 12.837q-.05 63.498-.05 126.986zm579.235-.11V584.62c0-14.177 6.324-22.12 17.053-21.85 10.08.25 16.554 8.212 16.564 21.48q.15 131.68 0 263.362c0 13.567-6.184 20.9-16.784 21.06-10.989.16-16.823-7.213-16.843-21.859q-.06-65.226.01-130.513zm68.193-1.148c0-21.5-.1-42.958 0-64.507.08-12.079 6.923-19.98 16.694-19.741 9.99.2 16.534 7.932 16.554 19.98q.1 65.087 0 130.183c0 12.578-6.194 19.521-16.764 19.451s-16.394-6.863-16.474-19.7c-.07-21.88-.01-43.778-.01-65.666z"/><path d="M410.13 432.188c5.594-4.566 11.728-8.602 22.378-6.264 10.36 2.268 11.768 7.593 11.748 13.377q-.08 37.523 0 75.057c0 5.684-.78 11.249-11.129 13.616-10.13 2.308-16.983-1.208-22.978-5.574zm170.873 44.347c0-13.088-.1-26.185 0-39.272.08-7.353 6.923-12.138 16.693-11.988 9.99.12 16.534 4.835 16.554 12.168q.1 39.631 0 79.262c0 7.663-6.194 11.889-16.763 11.849s-16.394-4.176-16.474-11.988c-.11-13.337-.01-26.664-.01-40.031zM409.94 665.06c27.892-.15 51.09 22.867 51.08 50.68s-23.327 51.18-50.79 51.12c-28.443-.07-52.29-23.747-51.83-51.45.47-27.912 23.277-50.19 51.54-50.35zm204.81.08c27.972.22 50.95 23.167 50.81 50.87-.1 27.972-24.046 51.32-52.219 50.85-27.543-.45-50.78-24.386-50.171-51.67a51.01 51.01 0 0 1 51.58-50.05zm362.516 98.114a26.184 26.184 0 0 1-7.433-1.09 25.895 25.895 0 0 1-17.363-32.228 462.229 462.229 0 0 0-10.64-295.601 25.885 25.885 0 1 1 48.383-18.402 514.008 514.008 0 0 1 11.808 328.899 25.885 25.885 0 0 1-24.755 18.422z"/><path d="M46.804 763.504a25.885 25.885 0 0 1-24.825-18.452A512.02 512.02 0 0 1 .499 597.866C.5 315.812 229.946 86.366 512 86.366c135.188 0 262.663 52.249 358.97 147.146a25.885 25.885 0 0 1-36.355 36.854C748.069 185.099 633.51 138.136 512 138.136c-253.492 0-459.731 206.238-459.731 459.73a460.05 460.05 0 0 0 19.341 132.33 25.895 25.895 0 0 1-17.363 32.23 26.184 26.184 0 0 1-7.443 1.078z"/></svg>