<?xml version="1.0" standalone="no"?><!DOCTYPE svg PUBLIC "-//W3C//DTD SVG 1.1//EN" "http://www.w3.org/Graphics/SVG/1.1/DTD/svg11.dtd"><svg class="icon" width="120px" height="120.00px" viewBox="0 0 1024 1024" version="1.1" xmlns="http://www.w3.org/2000/svg"><path d="M120.462361 642.2528c5.594537-7.502673 11.728546-14.116215 22.378146-10.289951 10.359883 3.726361 11.768507 12.467824 11.748527 21.978536q-0.079922 61.639805 0 123.26962c0 9.340878-0.779239 18.481951-11.129132 22.358166-10.130107 3.796293-16.983415-1.998049-22.977561-9.161054zM512.01998 494.517073h180.993249c45.955122 0 74.337405 27.732917 74.437308 73.548176q0.329678 148.085385 0 296.170771c-0.099902 44.027005-27.193444 72.639063-71.420254 72.92878q-183.93038 0.999024-367.860761 0c-44.906146-0.239766-71.300371-28.861815-71.310361-73.997737V568.165151c0-45.795278 28.032624-73.608117 74.167571-73.638088q90.491629-0.00999 180.993248-0.00999z m0.539474 68.193405c-39.571356 0-79.152702-0.259746-118.714069 0.069932-38.332566 0.319688-68.293307 28.731941-68.632975 65.93561q-0.79922 86.975063 0 173.960117c0.279727 34.676137 26.813815 64.656859 61.320117 65.286243 82.229698 1.498537 164.529327 1.838205 246.759024 0.38962 40.610341-0.719298 65.725815-29.691005 65.93561-70.621034q0.509502-81.690224 0-163.380449c-0.229776-43.537483-28.891785-71.510166-72.679024-71.580097q-56.984351-0.149854-113.988683-0.069932zM222.782439 716.41038v124.628293a80.581307 80.581307 0 0 1-0.899122 14.036293c-1.61842 8.99122-7.562615 13.546771-16.533854 13.486829s-14.485854-5.284839-16.214165-13.986341c-0.679337-3.406673-0.4096-6.993171-0.4096-10.549698V587.706068c0-3.526556-0.309698-7.143024 0.379629-10.549697 1.768273-8.691512 7.312859-14.146185 16.234146-14.196137 8.721483 0 14.915434 4.535571 16.493893 13.626693a76.16562 76.16562 0 0 1 0.999024 12.837463q-0.049951 63.49799-0.049951 126.98599zM802.01678 716.300488V584.619083c0-14.176156 6.323824-22.1184 17.053347-21.848663 10.080156 0.249756 16.553834 8.21198 16.563824 21.479024q0.149854 131.681405 0 263.36281c0 13.566751-6.183961 20.89959-16.78361 21.059434-10.989268 0.159844-16.823571-7.212956-16.843551-21.858654q-0.059941-65.226302 0.00999-130.512546zM870.210185 715.15161c0-21.499005-0.099902-42.958049 0-64.507005 0.079922-12.078205 6.923239-19.980488 16.693698-19.740722 9.990244 0.199805 16.533854 7.932254 16.553834 19.980488q0.099902 65.086439 0 130.182868c0 12.577717-6.193951 19.520937-16.763629 19.451005s-16.39399-6.863298-16.473912-19.700761c-0.069932-21.878634-0.00999-43.777249-0.009991-65.665873z" fill="#8BBF86" /><path d="M410.129483 432.187941c5.594537-4.565541 11.728546-8.6016 22.378146-6.263882 10.359883 2.267785 11.768507 7.592585 11.748527 13.376936q-0.079922 37.523356 0 75.056703c0 5.684449-0.779239 11.249015-11.129132 13.616702-10.130107 2.307746-16.983415-1.20882-22.977561-5.574556zM581.002615 476.534634c0-13.08722-0.099902-26.184429 0-39.271649 0.079922-7.35282 6.923239-12.138146 16.693697-11.988292 9.990244 0.119883 16.533854 4.835278 16.553834 12.168117q0.099902 39.631298 0 79.262595c0 7.662517-6.193951 11.88839-16.763629 11.848429s-16.39399-4.175922-16.473912-11.988293c-0.109893-13.336976-0.00999-26.663961-0.00999-40.030907zM409.939668 665.060527c27.892761-0.149854 51.090107 22.867668 51.080117 50.680507s-23.32722 51.18002-50.7904 51.120078c-28.442224-0.069932-52.288937-23.74681-51.829385-51.449756 0.469541-27.912741 23.277268-50.190985 51.539668-50.350829zM614.749659 665.140449c27.972683 0.219785 50.950244 23.167376 50.81038 50.870322-0.099902 27.972683-24.046517 51.319883-52.219005 50.850341-27.543102-0.449561-50.78041-24.386185-50.171005-51.669541a51.010185 51.010185 0 0 1 51.57963-50.051122zM977.265639 763.254634a26.184429 26.184429 0 0 1-7.432741-1.088936 25.894712 25.894712 0 0 1-17.363044-32.228527 462.228605 462.228605 0 0 0-10.63961-295.601327 25.884722 25.884722 0 1 1 48.382751-18.402029A514.008039 514.008039 0 0 1 1002.021463 744.832624 25.884722 25.884722 0 0 1 977.265639 763.254634z" fill="#8BBF86" /><path d="M46.804293 763.50439A25.884722 25.884722 0 0 1 21.978537 745.05241 512.01998 512.01998 0 0 1 0.499512 597.866146c0-282.054556 229.445932-511.500488 511.500488-511.500487 135.18798 0 262.663493 52.248976 358.969444 147.146302a25.884722 25.884722 0 0 1-36.354498 36.85401c-86.545483-85.266732-201.10361-132.230868-322.614946-132.230869-253.492449 0-459.731044 206.238595-459.731044 459.731044a460.050732 460.050732 0 0 0 19.341112 132.330771 25.894712 25.894712 0 0 1-17.363044 32.228527 26.184429 26.184429 0 0 1-7.442731 1.078946z" fill="#8BBF86" /></svg>