<svg class="icon" width="120" height="120" viewBox="0 0 1024 1024" xmlns="http://www.w3.org/2000/svg"><path d="M669.538 590.77h-98.461a19.692 19.692 0 0 0 0 39.384h98.461v98.461a19.692 19.692 0 1 0 39.385 0v-98.461h98.462a19.692 19.692 0 1 0 0-39.385h-98.462v-98.461a19.692 19.692 0 1 0-39.385 0v98.461zM261.356 315.076c-13.824 0-25.048-8.822-25.048-19.692s11.224-19.693 25.048-19.693h501.288c13.824 0 25.048 8.822 25.048 19.693s-11.224 19.692-25.048 19.692H261.356zM256 472.615h275.692a19.692 19.692 0 0 1 0 39.385H256a19.692 19.692 0 0 1 0-39.385zm0 236.308h275.692a19.692 19.692 0 1 1 0 39.385H256a19.692 19.692 0 1 1 0-39.385z"/></svg>