<?xml version="1.0" standalone="no"?><!DOCTYPE svg PUBLIC "-//W3C//DTD SVG 1.1//EN" "http://www.w3.org/Graphics/SVG/1.1/DTD/svg11.dtd"><svg class="icon" width="120px" height="120.00px" viewBox="0 0 1024 1024" version="1.1" xmlns="http://www.w3.org/2000/svg"><path d="M669.538462 590.769231h-98.461539a19.692308 19.692308 0 0 0 0 39.384615H669.538462v98.461539a19.692308 19.692308 0 1 0 39.384615 0V630.153846h98.461538a19.692308 19.692308 0 1 0 0-39.384615H708.923077v-98.461539a19.692308 19.692308 0 1 0-39.384615 0V590.769231zM261.356308 315.076923C247.532308 315.076923 236.307692 306.254769 236.307692 295.384615s11.224615-19.692308 25.048616-19.692307h501.287384c13.824 0 25.048615 8.822154 25.048616 19.692307s-11.224615 19.692308-25.048616 19.692308H261.356308zM256 472.615385h275.692308a19.692308 19.692308 0 0 1 0 39.384615h-275.692308a19.692308 19.692308 0 0 1 0-39.384615z m0 236.307692h275.692308a19.692308 19.692308 0 1 1 0 39.384615h-275.692308a19.692308 19.692308 0 1 1 0-39.384615z" /></svg>