<?xml version="1.0" standalone="no"?>
<!DOCTYPE svg PUBLIC "-//W3C//DTD SVG 1.1//EN" "http://www.w3.org/Graphics/SVG/1.1/DTD/svg11.dtd"><svg t="1574928528470"
  class="icon" viewBox="0 0 1024 1024" version="1.1" xmlns="http://www.w3.org/2000/svg" p-id="2655"
  xmlns:xlink="http://www.w3.org/1999/xlink" width="200" height="200">
  <defs>
    <style type="text/css"></style>
  </defs>
  <path
    d="M281.287111 910.222222a91.932444 91.932444 0 0 1-91.648-91.648V268.629333a91.932444 91.932444 0 0 1 91.648-91.648c16.042667 0 29.781333 13.767111 29.781333 29.781334V250.311111c-34.360889 9.159111-59.562667 20.622222-59.562666 57.287111v465.152c0 41.244444 32.056889 75.605333 75.605333 75.605334h400.981333c41.244444 0 75.633778-34.360889 75.633778-75.605334V307.598222c0-36.664889-25.230222-48.128-61.866666-54.983111V209.066667a27.875556 27.875556 0 0 1 27.477333-32.085334 91.932444 91.932444 0 0 1 91.648 91.648v549.944889A91.932444 91.932444 0 0 1 769.336889 910.222222H281.315556z m274.972445-245.191111H739.555556c16.042667 0 29.781333 13.767111 29.781333 29.809778 0 16.042667-13.738667 32.085333-29.781333 32.085333h-183.296a30.321778 30.321778 0 0 1-29.809778-29.809778c0-16.042667 13.767111-32.056889 29.809778-32.056888z m0-242.858667H739.555556c16.042667 0 29.781333 13.738667 29.781333 29.781334s-13.738667 29.781333-29.781333 29.781333h-183.296a30.321778 30.321778 0 0 1-29.809778-29.781333c0-16.042667 13.767111-29.781333 29.809778-29.781334zM372.906667 238.848V206.791111c0-16.014222 13.738667-29.781333 29.781333-29.781333h29.809778A91.932444 91.932444 0 0 1 524.174222 85.333333a91.932444 91.932444 0 0 1 91.648 91.648h32.085334c16.042667 0 29.781333 13.767111 29.781333 29.781334v29.809777l-304.753778 2.275556z m-80.213334 187.904c4.608-4.579556 13.767111-4.579556 20.650667 0l50.403556 50.403556 109.994666-109.994667c6.855111-6.855111 18.318222-6.855111 22.897778 0 6.883556 6.883556 6.883556 16.042667 0 22.926222l-119.153778 119.153778c-4.551111 2.275556-9.159111 4.551111-13.738666 4.551111-4.579556 0-6.883556-2.275556-9.159112-4.551111l-59.591111-59.591111c-9.159111-9.159111-9.159111-18.318222-2.275555-22.897778z m167.281778 325.376c-6.855111 6.855111-18.318222 6.855111-22.897778 0l-48.128-48.128-48.128 48.128c-6.855111 6.855111-18.318222 6.855111-22.897777 0-6.883556-6.883556-6.883556-18.346667 0-22.926222l48.099555-48.128-48.099555-48.099556c-6.883556-6.883556-6.883556-18.346667 0-22.926222 6.855111-6.855111 16.042667-6.855111 22.897777 0l48.128 48.128 48.128-48.128c6.855111-6.855111 18.318222-6.855111 22.897778 0 6.883556 6.883556 6.883556 16.042667 0 22.926222l-48.099555 48.099556 48.099555 48.128c6.883556 4.579556 6.883556 16.042667 0 22.926222z"
fill= '#fff' p-id="2656"></path>
</svg>
