<svg class="icon" width="120" height="120" viewBox="0 0 1024 1024" xmlns="http://www.w3.org/2000/svg"><path d="M708.981 251.29H315.02c-34.762 0-63.73 28.967-63.73 63.729v23.174h521.422v-23.174c0-34.762-28.968-63.73-63.73-63.73zm-115.87-40.555l11.586 69.522H419.303l11.587-69.522h162.22zm5.793-46.35H425.096c-17.38 0-34.761 17.381-34.761 34.762l-17.38 86.904c0 17.38 11.587 34.761 28.967 34.761h214.362c17.381 0 28.968-17.38 28.968-34.761l-11.587-86.904c0-17.38-17.38-34.761-34.761-34.761zm121.665 220.157H303.43c-23.174 0-40.554 17.38-40.554 40.554l34.761 393.964c0 23.174 23.174 40.554 46.348 40.554h324.44c23.174 0 46.35-17.38 46.35-40.554l34.76-393.964c11.587-23.174-5.793-40.554-28.967-40.554zM425.096 772.71h-63.73l-23.173-301.266h86.903V772.71zm133.253 0h-86.904V471.445h86.904v301.266zm104.284 0h-63.73V471.445h86.904l-23.174 301.266z"/></svg>