<?xml version="1.0" standalone="no"?><!DOCTYPE svg PUBLIC "-//W3C//DTD SVG 1.1//EN" "http://www.w3.org/Graphics/SVG/1.1/DTD/svg11.dtd"><svg class="icon" width="120px" height="120.00px" viewBox="0 0 1024 1024" version="1.1" xmlns="http://www.w3.org/2000/svg"><path d="M0.04 320.29l448 0 0 64-448 0 0-64Z"  /><path d="M384 448.13H64a64.19 64.19 0 0 0-64 64V960a64.19 64.19 0 0 0 64 64h34V767.88a64.19 64.19 0 0 1 64-64h124.08a64.19 64.19 0 0 1 64 64V1024h34a64.19 64.19 0 0 0 64-64V512.13a64.19 64.19 0 0 0-64.08-64zM992 0H544a32.09 32.09 0 0 0-32 32v960a32.09 32.09 0 0 0 32 32h448a32.09 32.09 0 0 0 32-32V32a32.09 32.09 0 0 0-32-32zM704.11 436.27a12 12 0 0 1-12 12h-104a12 12 0 0 1-12-12v-104a12 12 0 0 1 12-12h104a12 12 0 0 1 12 12z m0-192.32a12 12 0 0 1-12 12h-104a12 12 0 0 1-12-12V140a12 12 0 0 1 12-12h104a12 12 0 0 1 12 12z m256 192.32a12 12 0 0 1-12 12h-104a12 12 0 0 1-12-12v-104a12 12 0 0 1 12-12h104a12 12 0 0 1 12 12z m0-192.32a12 12 0 0 1-12 12h-104a12 12 0 0 1-12-12V140a12 12 0 0 1 12-12h104a12 12 0 0 1 12 12z"  /></svg>