<svg class="icon" width="120" height="120" viewBox="0 0 1024 1024" xmlns="http://www.w3.org/2000/svg"><path d="M329.953 255.672h368.21c14.623 0 26.44-11.837 26.44-26.419s-11.817-26.42-26.44-26.42h-368.21c-14.602 0-26.419 11.838-26.419 26.42 0 14.582 11.817 26.42 26.42 26.42zm0 146.842h262.431c14.602 0 26.358-11.838 26.358-26.42s-11.756-26.398-26.358-26.398h-262.43c-14.603 0-26.42 11.817-26.42 26.399s11.817 26.419 26.42 26.419zm600.064-82.924l-66.212-38.482V82.186c0-14.766-11.96-26.747-26.705-26.747H191.058c-14.746 0-26.726 11.96-26.726 26.747V281.13l-66.233 38.482-52.797 26.46v603.628c0 3.625.737 7.086 2.089 10.22.102.265.266.47.389.757a27.772 27.772 0 0 0 2.6 4.424c4.63 6.41 11.961 10.567 20.378 10.874.328 0 .635.103.963.103h884.695c14.602 0 26.399-11.838 26.399-26.378v-601.17l-52.798-28.939zm-66.212 22.63l62.28 36.189-62.28 36.168V342.22zM234.271 108.238h559.575c13.127 0 17.182 4.014 17.182 17.1v319.919l-296.96 172.523L217.13 445.256V125.358c.02-13.107 4.055-17.121 17.142-17.121zm-69.94 306.32l-62.28-36.169 62.28-36.188v72.356zm765.686 508.66H98.12v-486.01l402.657 233.882c.369.307.82.41 1.229.594.594.327 1.167.532 1.761.798.983.43 1.966.799 2.97 1.127.655.164 1.29.266 1.966.43.962.205 1.925.368 2.928.45.82.041 1.639.041 2.458.041s1.638 0 2.458-.04a36.16 36.16 0 0 0 2.928-.451c.656-.185 1.31-.287 1.966-.43a35.529 35.529 0 0 0 2.99-1.127c.594-.266 1.168-.47 1.762-.798.41-.205.84-.308 1.228-.594l402.637-233.882v486.01h-.04zm0 0"/></svg>