<?xml version="1.0" standalone="no"?><!DOCTYPE svg PUBLIC "-//W3C//DTD SVG 1.1//EN" "http://www.w3.org/Graphics/SVG/1.1/DTD/svg11.dtd"><svg class="icon" width="120px" height="120.00px" viewBox="0 0 1024 1024" version="1.1" xmlns="http://www.w3.org/2000/svg"><path d="M158.848 412.992l309.152 139.008c27.328 12.864 39.136 12.864 68.736 0l309.12-139.008c22.816-10.592 23.424-55.712 0-68.672l-309.12-163.232c-24.288-14.4-41.376-13.632-68.736 0L158.848 344.32C135.328 359.52 134.56 400.128 158.848 412.992zM502.368 815.424l-315.776-145.568c1.056 0.672-27.968-12.672-48.608-24.416 0 17.728 4.416 49.984 20.832 58.528l309.152 139.136c27.328 12.768 39.136 12.768 68.704 0L845.888 704c15.296-7.136 20.672-40.672 20.672-58.528-19.872 10.016-48.032 24.288-48.672 24.416L502.368 815.424zM158.848 558.592l309.152 138.976c27.328 12.896 39.136 12.896 68.736 0l309.12-138.976c15.328-7.104 20.704-40.544 20.704-58.592-19.872 9.984-48.032 24.128-48.672 24.256l-315.808 145.632L186.56 524.256c1.056 0.672-27.968-12.448-48.608-24.256C138.016 517.632 142.432 549.888 158.848 558.592z" /></svg>