<svg class="icon" width="120" height="120" viewBox="0 0 1024 1024" xmlns="http://www.w3.org/2000/svg"><path d="M158.848 412.992L468 552c27.328 12.864 39.136 12.864 68.736 0l309.12-139.008c22.816-10.592 23.424-55.712 0-68.672l-309.12-163.232c-24.288-14.4-41.376-13.632-68.736 0L158.848 344.32c-23.52 15.2-24.288 55.808 0 68.672zm343.52 402.432L186.592 669.856c1.056.672-27.968-12.672-48.608-24.416 0 17.728 4.416 49.984 20.832 58.528l309.152 139.136c27.328 12.768 39.136 12.768 68.704 0L845.888 704c15.296-7.136 20.672-40.672 20.672-58.528-19.872 10.016-48.032 24.288-48.672 24.416l-315.52 145.536zm-343.52-256.832L468 697.568c27.328 12.896 39.136 12.896 68.736 0l309.12-138.976c15.328-7.104 20.704-40.544 20.704-58.592-19.872 9.984-48.032 24.128-48.672 24.256L502.08 669.888 186.56 524.256c1.056.672-27.968-12.448-48.608-24.256.064 17.632 4.48 49.888 20.896 58.592z"/></svg>