<svg class="icon" width="120" height="120" viewBox="0 0 1024 1024" xmlns="http://www.w3.org/2000/svg"><path d="M248.385 333.043a50.012 50.012 0 0 1-53.928-44.89 50.012 50.012 0 0 1 53.928-44.89 42.178 42.178 0 0 1 44.589 44.89 42.48 42.48 0 0 1-44.59 44.89m250.059-90.382a42.178 42.178 0 0 1 43.684 45.492 42.178 42.178 0 0 1-44.588 44.89 50.012 50.012 0 0 1-53.928-44.89 50.614 50.614 0 0 1 53.928-44.89m192.213 97.312a338.934 338.934 0 0 1 34.345 2.109C692.765 198.072 540.32 90.216 364.677 90.216c-196.431 0-357.312 134.97-357.312 305.492 0 98.517 53.326 180.765 142.804 241.02l-35.55 109.06 126.234-62.965a618.818 618.818 0 0 0 125.029 17.775 304.287 304.287 0 0 0 33.14-1.507 261.807 261.807 0 0 1-11.147-75.017c0-156.361 134.067-283.5 303.685-283.5"/><path d="M614.735 575.268a35.852 35.852 0 0 1 0-71.402 40.672 40.672 0 0 1 44.588 35.851 40.672 40.672 0 0 1-44.588 35.852m196.732-71.402a40.973 40.973 0 0 1 44.588 35.852 40.973 40.973 0 0 1-44.588 35.851 35.852 35.852 0 0 1 0-71.402M658.72 775.615a187.393 187.393 0 0 1 348.574-96.709 189.803 189.803 0 0 0 9.64-60.255c-.3-141.9-143.406-257.288-303.684-257.288-171.124 0-303.986 115.388-303.986 258.794 0 137.08 120.51 249.154 280.487 259.398a187.694 187.694 0 0 1-30.128-103.94"/><path d="M804.839 862.08l3.615 7.533q1.808 3.916 4.82 8.737t6.93 10.845l10.243 14.763a87.972 87.972 0 0 1 7.833 14.16 17.173 17.173 0 0 1 1.507 10.544q0 4.218-8.436 4.218h-18.077a26.512 26.512 0 0 1-10.846-2.109 31.634 31.634 0 0 1-9.64-6.628 82.85 82.85 0 0 1-9.34-11.75q-4.82-6.929-10.544-16.87a93.998 93.998 0 0 1-9.34-19.584 100.626 100.626 0 0 1-3.615-13.858 26.813 26.813 0 0 1 0-11.147h12.05l8.738 1.807 9.038 2.11 7.23 2.108 6.327 2.41zm105.747-180.764a42.781 42.781 0 0 1 22.897-13.256 23.198 23.198 0 0 1 18.076 5.423 51.82 51.82 0 0 1 12.353 19.282 157.868 157.868 0 0 1 9.038 28.62 283.5 283.5 0 0 1 5.423 33.14 323.569 323.569 0 0 1 1.807 32.84 223.244 223.244 0 0 1-2.109 30.127 186.489 186.489 0 0 1-6.326 30.128 127.138 127.138 0 0 1-7.833 25.91 45.492 45.492 0 0 1-12.654 15.364 19.282 19.282 0 0 1-15.064 3.616 31.634 31.634 0 0 1-16.871-11.449 65.075 65.075 0 0 0-23.198-16.57 200.347 200.347 0 0 0-31.634-11.147 347.972 347.972 0 0 0-36.153-9.942l-32.236-5.122-24.404-4.218q-9.942-2.109-11.147-5.121v-91.287q0-4.217 9.34-6.628a166.906 166.906 0 0 1 20.487-5.121l28.32-5.122a289.525 289.525 0 0 0 31.934-7.532 213.905 213.905 0 0 0 31.935-12.352 113.28 113.28 0 0 0 28.32-19.282zm-205.77 76.223a17.474 17.474 0 0 1 5.423-12.955 18.076 18.076 0 0 1 12.954-5.423h18.378v82.85h-18.679a18.076 18.076 0 0 1-12.955-5.423 17.474 17.474 0 0 1-5.423-12.954z"/></svg>