<?xml version="1.0" standalone="no"?><!DOCTYPE svg PUBLIC "-//W3C//DTD SVG 1.1//EN" "http://www.w3.org/Graphics/SVG/1.1/DTD/svg11.dtd"><svg class="icon" width="120px" height="120.00px" viewBox="0 0 1024 1024" version="1.1" xmlns="http://www.w3.org/2000/svg"><path d="M248.38493331 333.04302933a50.01154363 50.01154363 0 0 1-53.92810963-44.88988031 50.01154363 50.01154363 0 0 1 53.92810963-44.88987903 42.17841036 42.17841036 0 0 1 44.58860632 44.88987903 42.47968437 42.47968437 0 0 1-44.58860632 44.88988031m250.05772078-90.38230866A42.17841036 42.17841036 0 0 1 542.12743579 288.15314902a42.17841036 42.17841036 0 0 1-44.58860502 44.88988031 50.01154363 50.01154363 0 0 1-53.92811092-44.88988031 50.61409295 50.61409295 0 0 1 53.92811092-44.88987903m192.21304257 97.31161862a338.9336568 338.9336568 0 0 1 34.34527708 2.10892065C692.76461731 198.07211567 540.31979044 90.21589382 364.67683775 90.21589382 168.24595389 90.21589382 7.36544444 225.18680748 7.36544444 395.70809685c0 98.51671594 53.32556162 180.76461731 142.80404694 241.01948889l-35.55037442 109.06131918L240.85307534 682.82256337a618.81753806 618.81753806 0 0 0 125.02885973 17.77518722 304.28710442 304.28710442 0 0 0 33.14017976-1.50637263 261.80742005 261.80742005 0 0 1-11.14715125-75.01731611c0-156.36139415 134.06709036-283.49917454 303.68455639-283.49917324" fill="#ffffff" /><path d="M614.73455724 575.26761554a35.85164842 35.85164842 0 0 1 0-71.40202284 40.67203903 40.67203903 0 0 1 44.58860501 35.85164843 40.67203903 40.67203903 0 0 1-44.58860501 35.85164972m196.73215786-71.40202412a40.97331303 40.97331303 0 0 1 44.58860502 35.85164841 40.97331303 40.97331303 0 0 1-44.58860502 35.8516497 35.85164842 35.85164842 0 0 1 0-71.40202411m-152.74610087 271.14692596a187.39265326 187.39265326 0 0 1 348.57443543-96.70907059 189.80284791 189.80284791 0 0 0 9.64077991-60.25487158C1016.63455556 476.75089959 873.52923331 361.36281978 713.25127317 361.36281978c-171.1238374 0-303.98583041 115.38807982-303.98583041 258.79467607 0 137.07983431 120.50974444 249.15389746 280.48643058 259.39722541a187.69392726 187.69392726 0 0 1-30.12743578-103.93965457" fill="#ffffff" /><path d="M804.83867916 862.08080806l3.61529198 7.53185927q1.80764665 3.91656729 4.8203906 8.7369566t6.92930996 10.84587594l10.24332793 14.76244452a87.97211399 87.97211399 0 0 1 7.83313329 14.15989525 17.17263919 17.17263919 0 0 1 1.50637263 10.54460193q0 4.21784129-8.4356826 4.21784129H813.27436174a26.51214381 26.51214381 0 0 1-10.84587724-2.10892065 31.63380842 31.63380842 0 0 1-9.64077991-6.62803595 82.85044939 82.85044939 0 0 1-9.33950462-11.74970055q-4.82038931-6.92930996-10.54460324-16.87136389a93.99760064 93.99760064 0 0 1-9.33950462-19.58283384 100.62563659 100.62563659 0 0 1-3.61529327-13.85861992 26.81341781 26.81341781 0 0 1 0-11.14715126h12.05097457l8.7369566 1.80764534 9.03823061 2.10892065 7.23058525 2.10892066 6.32676195 2.41019464z m105.7473012-180.76461732a42.78095967 42.78095967 0 0 1 22.89685182-13.25607189 23.19812583 23.19812583 0 0 1 18.07646122 5.42293862A51.81919028 51.81919028 0 0 1 963.91154197 692.76461731a157.86776548 157.86776548 0 0 1 9.03823061 28.62106444 283.49917454 283.49917454 0 0 1 5.42293862 33.14017976 323.56866425 323.56866425 0 0 1 1.80764663 32.83890445 223.24430167 223.24430167 0 0 1-2.10892065 30.12743708 186.48882994 186.48882994 0 0 1-6.32676193 30.12743579A127.13778038 127.13778038 0 0 1 963.91154197 873.52923331a45.49242833 45.49242833 0 0 1-12.6535226 15.36499256 19.28155854 19.28155854 0 0 1-15.06371854 3.61529198 31.63380842 31.63380842 0 0 1-16.87136387-11.44842526 65.07526218 65.07526218 0 0 0-23.19812583-16.57008988 200.34744986 200.34744986 0 0 0-31.63380842-11.14715124 347.97188741 347.97188741 0 0 0-36.15292371-9.94205394l-32.23635644-5.12166461-24.40322316-4.21784q-9.94205392-2.10892065-11.14715125-5.12166462v-91.28613197q0-4.21784129 9.33950461-6.62803596a166.9059961 166.9059961 0 0 1 20.48665716-5.12166331l28.31979044-5.12166461a289.52466118 289.52466118 0 0 0 31.93508243-7.53185928 213.90479706 213.90479706 0 0 0 31.93508114-12.35224858 113.27916047 113.27916047 0 0 0 28.31979044-19.28155854z m-205.77038848 76.22241344a17.47391319 17.47391319 0 0 1 5.42293733-12.9547966 18.07646122 18.07646122 0 0 1 12.95479789-5.42293861h18.37773652v82.85044937H722.8920531a18.07646122 18.07646122 0 0 1-12.9547979-5.42293863 17.47391319 17.47391319 0 0 1-5.42293862-12.95479788z" fill="#ffffff" /></svg>